<svg xmlns="http://www.w3.org/2000/svg" id="canvas" viewBox="636.840 259.075 206.513 252.855"><path d="M 726.54,339.10 C 725.53 337.85, 724.03 336.79, 721.12 336.50 C 718.21 336.21, 716.18 336.48, 712.01 337.66 C 707.83 338.85, 705.17 339.48, 700.24 342.44 C 695.31 345.40, 692.76 347.23, 687.36 352.48 C 681.95 357.73, 678.80 360.91, 673.21 368.68 C 667.61 376.44, 664.43 381.37, 659.38 391.31 C 654.33 401.25, 651.61 407.40, 647.97 418.38 C 644.33 429.36, 642.69 435.69, 641.18 446.21 C 639.67 456.74, 639.47 462.21, 640.41 471.00 C 641.36 479.80, 642.54 483.90, 645.90 490.21 C 649.27 496.52, 651.77 499.08, 657.24 502.55 C 662.71 506.02, 666.25 507.01, 673.24 507.56 C 680.23 508.11, 684.24 507.65, 692.18 505.29 C 700.13 502.93, 704.45 501.03, 712.95 495.74 C 721.45 490.44, 726.06 486.95, 734.67 478.81 C 743.29 470.67, 747.80 465.59, 756.02 455.04 C 764.24 444.50, 768.37 438.28, 775.75 426.08 C 783.14 413.88, 786.73 406.98, 792.93 394.04 C 799.14 381.11, 802.01 374.05, 806.80 361.40 C 811.59 348.75, 813.63 342.19, 816.89 330.77 C 820.15 319.35, 821.36 313.71, 823.08 304.29 C 824.81 294.88, 825.23 290.61, 825.51 283.71 C 825.79 276.82, 825.80 274.04, 824.49 269.82 C 823.17 265.61, 821.81 263.68, 818.92 262.63 C 816.03 261.58, 813.48 261.91, 810.02 264.57 C 806.57 267.23, 805.08 269.58, 801.64 275.93 C 798.20 282.27, 796.34 286.40, 792.82 296.29 C 789.30 306.18, 787.25 312.55, 784.06 325.38 C 780.86 338.21, 779.13 346.13, 776.83 360.44 C 774.54 374.75, 773.53 382.91, 772.57 396.93 C 771.62 410.96, 771.48 418.23, 772.08 430.58 C 772.68 442.93, 773.47 448.76, 775.58 458.69 C 777.69 468.62, 779.25 472.91, 782.64 480.24 C 786.03 487.57, 788.19 490.46, 792.53 495.34 C 796.87 500.22, 799.35 502.01, 804.35 504.62 C 809.35 507.22, 812.59 507.57, 817.52 508.37 C 822.44 509.16, 825.13 509.00, 828.98 508.59 C 832.83 508.19, 834.51 507.54, 836.75 506.36 C 839.00 505.17, 839.76 503.85, 840.20 502.67 C 840.65 501.49, 840.07 500.80, 838.99 500.45 C 837.91 500.11, 836.95 500.53, 834.79 500.95 C 832.63 501.36, 831.54 501.99, 828.20 502.52 C 824.85 503.04, 822.50 503.84, 818.07 503.56 C 813.65 503.28, 810.70 503.18, 806.06 501.10 C 801.42 499.02, 799.09 497.57, 794.88 493.17 C 790.67 488.77, 788.45 486.10, 785.02 479.11 C 781.59 472.11, 779.94 467.94, 777.74 458.21 C 775.55 448.49, 774.70 442.71, 774.03 430.48 C 773.37 418.25, 773.49 411.01, 774.43 397.06 C 775.37 383.11, 776.39 374.97, 778.74 360.75 C 781.10 346.52, 782.86 338.62, 786.20 325.93 C 789.55 313.23, 791.72 306.90, 795.47 297.28 C 799.22 287.66, 801.44 283.63, 804.97 277.84 C 808.50 272.05, 810.62 270.59, 813.13 268.33 C 815.63 266.07, 816.02 266.00, 817.51 266.54 C 819.00 267.07, 819.60 267.58, 820.59 271.00 C 821.58 274.42, 822.43 277.08, 822.46 283.66 C 822.49 290.24, 822.24 294.58, 820.74 303.89 C 819.23 313.20, 818.08 318.85, 814.94 330.23 C 811.81 341.60, 809.80 348.14, 805.08 360.75 C 800.35 373.36, 797.50 380.39, 791.32 393.27 C 785.14 406.14, 781.55 413.02, 774.18 425.12 C 766.80 437.23, 762.66 443.40, 754.45 453.81 C 746.24 464.21, 741.70 469.21, 733.13 477.15 C 724.55 485.09, 719.93 488.45, 711.57 493.49 C 703.21 498.53, 698.95 500.21, 691.33 502.36 C 683.72 504.51, 679.97 504.77, 673.50 504.26 C 667.03 503.75, 663.96 502.90, 658.96 499.81 C 653.96 496.72, 651.67 494.63, 648.48 488.81 C 645.29 482.99, 643.99 479.17, 643.00 470.72 C 642.02 462.26, 642.11 456.87, 643.55 446.55 C 644.99 436.23, 646.59 429.94, 650.21 419.12 C 653.82 408.31, 656.56 402.20, 661.63 392.46 C 666.70 382.72, 669.92 377.88, 675.56 370.42 C 681.21 362.96, 684.44 359.90, 689.84 355.17 C 695.24 350.43, 697.85 348.96, 702.56 346.74 C 707.26 344.53, 709.67 344.58, 713.38 344.07 C 717.09 343.57, 718.54 344.50, 721.10 344.23 C 723.65 343.96, 725.08 343.75, 726.17 342.72 C 727.25 341.69, 727.55 340.34, 726.54 339.10" style="stroke: black; fill: black;"/></svg>